# xmcd
#
# Track frame offsets: 
#        150
#        15477
#        31100
#        48692
#        62752
#        79250
#        89952
#        106825
#        123467
#        137057
#        146342
#
# Disc length: 2213 seconds
#
# Revision: 0
# Processed by: cddbd v1.5.2PL0 Copyright (c) Steve Scherf et al.
# Submitted via: ExactAudioCopy v0.99pb3
#
DISCID=9508a30b
DTITLE=J L Stiles - Sanctuary
DYEAR=1999
DGENRE=Blues
TTITLE0=He Didn't Even Know It
TTITLE1=Impure World
TTITLE2=The Mainstream
TTITLE3=Ooh Wee Baby
TTITLE4=Sanctuary
TTITLE5=Continuum
TTITLE6=The Difference
TTITLE7=JBS II
TTITLE8=Believe In Love
TTITLE9=Ain't Never Gonna Make It
TTITLE10=Angels Laid Him Away
EXTD=
EXTT0=
EXTT1=
EXTT2=
EXTT3=
EXTT4=
EXTT5=
EXTT6=
EXTT7=
EXTT8=
EXTT9=
EXTT10=
PLAYORDER=
